<svg xmlns:inkscape="http://www.inkscape.org/namespaces/inkscape"
xmlns:sodipodi="http://sodipodi.sourceforge.net/DTD/sodipodi-0.dtd"
xmlns="http://www.w3.org/2000/svg" xmlns:svg="http://www.w3.org/2000/svg"
viewBox="0 0 8.4667997 10.583496125" version="1.1" x="0px" y="0px">
<g transform="translate(-87.63524,-101.47847)">
<path style="font-variation-settings:'wght' 700;"
d="m 91.75979,102.80111 a 2.912926,2.912926 0 0 0 -1.950788,0.85111 2.912926,2.912926 0 0 0 0,4.11964 2.912926,2.912926 0 0 0 4.119647,0 2.912926,2.912926 0 0 0 0,-4.11964 2.912926,2.912926 0 0 0 -2.168859,-0.85111 z m 1.378129,1.37106 a 0.26460996,0.26460996 0 0 1 0.252183,0.36121 l -1.164273,3.02359 a 0.26460996,0.26460996 0 0 1 -0.488335,0.0155 l -0.538985,-1.18959 -1.189085,-0.54105 a 0.26460996,0.26460996 0 0 1 0.01344,-0.48783 l 3.025653,-1.16426 a 0.26460996,0.26460996 0 0 1 0.08938,-0.0175 z" fill="#3E2753" stroke="none"/>
<path style="color:#3E2753;" d="m 105.71094,-95.046875 c -1.75175,4e-6 -3.17578,1.425983 -3.17578,3.177734 0,1.751752 1.42403,3.177731 3.17578,3.177735 1.75175,2e-6 3.17773,-1.425979 3.17773,-3.177735 0,-1.751756 -1.42598,-3.177736 -3.17773,-3.177734 z m 0,0.529297 c 1.46577,-2e-6 2.64844,1.182664 2.64844,2.648437 0,1.465773 -1.18267,2.64844 -2.64844,2.648438 -1.46577,-3e-6 -2.64649,-1.182668 -2.64649,-2.648438 0,-1.465769 1.18072,-2.648434 2.64649,-2.648437 z" transform="rotate(90)" fill="#3E2753" stroke-linecap="round" stroke-linejoin="round"/>
<path style="color:#3E2753;" d="m 91.4375,105.87891 a 0.2645835,0.2645835 0 0 0 -0.1875,0.0781 l -0.238281,0.23828 a 0.2645835,0.2645835 0 0 0 0,0.375 0.2645835,0.2645835 0 0 0 0.373047,0 L 91.625,106.33008 a 0.2645835,0.2645835 0 0 0 0,-0.37305 0.2645835,0.2645835 0 0 0 -0.1875,-0.0781 z" fill="#3E2753" stroke-linecap="round" stroke-linejoin="round"/></g><text x="0" y="23.4667969" fill="#000000" font-size="5px" font-weight="bold" font-family="'Helvetica Neue', Helvetica, Arial-Unicode, Arial, Sans-serif">Created by Meko</text><text x="0" y="28.4667969" fill="#3E2753" font-size="5px" font-weight="bold" font-family="'Helvetica Neue', Helvetica, Arial-Unicode, Arial, Sans-serif">
from the Noun Project</text></svg>